# xmcd CD database file
#
# Track frame offsets:
#	150
#	34157
#	60600
#	81725
#	103807
#	152282
#	178812
#
# Disc length: 2957 seconds
#
# Revision: 0
# Processed by: cddbd v1.4PL0 Copyright (c) Steve Scherf et al.
# Submitted via: CDex 1.50
#
DISCID=580b8b07
DTITLE=Sonny Rollins - In Stockholm
DYEAR=1959
DGENRE=Jazz
TTITLE0=St. Thomas
TTITLE1=There Will Never Be Another You
TTITLE2=Stay As Sweet As You Are
TTITLE3=I've Told You Every Little Star
TTITLE4=How High The Moon
TTITLE5=Oleo
TTITLE6=Paul's Pal
EXTD=YEAR: 1959
EXTT0=
EXTT1=
EXTT2=
EXTT3=
EXTT4=
EXTT5=
EXTT6=
PLAYORDER=
